<svg width="240" height="240" viewBox="0 0 240 240" fill="none" xmlns="http://www.w3.org/2000/svg">
<g clip-path="url(#clip0_3137_1194)">
<mask id="mask0_3137_1194" style="mask-type:luminance" maskUnits="userSpaceOnUse" x="0" y="0" width="240" height="240">
<path d="M240 120C240 53.7258 186.274 0 120 0C53.7258 0 0 53.7258 0 120C0 186.274 53.7258 240 120 240C186.274 240 240 186.274 240 120Z" fill="white"/>
</mask>
<g mask="url(#mask0_3137_1194)">
<path d="M240 120C240 53.7258 186.274 0 120 0C53.7258 0 0 53.7258 0 120C0 186.274 53.7258 240 120 240C186.274 240 240 186.274 240 120Z" fill="#1A1B25"/>
<mask id="mask1_3137_1194" style="mask-type:luminance" maskUnits="userSpaceOnUse" x="68" y="10" width="100" height="100">
<path d="M143.598 10.4L68 34.3594L91.9594 109.957L167.557 85.9977L143.598 10.4Z" fill="white"/>
</mask>
<g mask="url(#mask1_3137_1194)">
<path d="M125.447 18.7522C134.032 21.2309 138.64 27.5695 140.138 32.2943C146.128 51.1937 152.118 70.0932 152.634 88.1279L145.03 72.3393C139.441 79.3104 131.488 87.0303 126.763 88.5279C122.038 90.0255 111.091 88.2951 102.506 85.8167L105.386 103.102C95.4192 88.0623 89.4296 69.1632 83.4392 50.2638C81.9424 45.539 82.0584 37.7029 87.648 30.7319C87.532 38.568 89.7784 45.6552 93.6376 49.6313C101.59 41.9116 120.49 35.9217 131.437 37.6516C132.302 32.178 130.056 25.0908 125.447 18.7522ZM137.426 56.5511C134.641 65.0382 132.426 67.4301 124.634 73.6044C131.077 76.7616 139.74 72.3099 142.784 65.252C144.103 62.1855 141.701 58.3486 137.426 56.5511ZM99.628 68.5308C97.1696 72.4621 97.416 76.9823 100.26 78.7292C106.814 82.7455 116.46 81.3943 119.909 75.1018C109.982 74.5431 106.794 73.8639 99.628 68.5308Z" fill="#75A8FF"/>
</g>
<path d="M29.2454 118.477C29.2454 112.947 30.5467 108.717 33.1494 105.789C35.8171 102.796 39.7862 101.299 45.0566 101.299C50.327 101.299 54.2635 102.796 56.8662 105.789C59.5339 108.717 60.8678 112.947 60.8678 118.477V120.624H50.7174V117.794C50.7174 115.321 50.2294 113.597 49.2534 112.621C48.3425 111.58 47.0411 111.059 45.3494 111.059C43.6577 111.059 42.3238 111.58 41.3478 112.621C40.4369 113.597 39.9814 115.321 39.9814 117.794C39.9814 120.136 40.5019 122.219 41.543 124.04C42.5841 125.797 43.8854 127.489 45.447 129.115C47.0086 130.677 48.6678 132.271 50.4246 133.898C52.2465 135.459 53.9382 137.183 55.4998 139.071C57.0614 140.958 58.3627 143.105 59.4038 145.512C60.4449 147.919 60.9654 150.75 60.9654 154.003C60.9654 159.534 59.599 163.796 56.8662 166.789C54.1985 169.717 50.2294 171.181 44.959 171.181C39.6886 171.181 35.687 169.717 32.9542 166.789C30.2865 163.796 28.9526 159.534 28.9526 154.003V149.807H39.103V154.687C39.103 157.159 39.591 158.883 40.567 159.859C41.6081 160.835 42.9745 161.323 44.6662 161.323C46.3579 161.323 47.6918 160.835 48.6678 159.859C49.7089 158.883 50.2294 157.159 50.2294 154.687C50.2294 152.344 49.7089 150.295 48.6678 148.538C47.6267 146.716 46.3254 145.024 44.7638 143.463C43.2022 141.836 41.5105 140.242 39.6886 138.68C37.9318 137.054 36.2726 135.297 34.711 133.41C33.1494 131.523 31.8481 129.375 30.807 126.968C29.7659 124.561 29.2454 121.731 29.2454 118.477ZM77.3645 102.08V154.784C77.3645 157.257 77.8525 158.981 78.8285 159.957C79.8696 160.933 81.236 161.421 82.928 161.421C84.6192 161.421 85.9536 160.933 86.9296 159.957C87.9704 158.981 88.4912 157.257 88.4912 154.784V102.08H98.6416V154.101C98.6416 159.631 97.2752 163.894 94.5424 166.887C91.8744 169.815 87.9056 171.279 82.6352 171.279C77.3645 171.279 73.3629 169.815 70.6301 166.887C67.9624 163.894 66.6285 159.631 66.6285 154.101V102.08H77.3645ZM121.815 102.08C127.216 102.08 131.218 103.511 133.82 106.375C136.488 109.238 137.822 113.435 137.822 118.965V127.847C137.822 133.377 136.488 137.574 133.82 140.437C131.218 143.3 127.216 144.731 121.815 144.731H116.74V170.4H106.004V102.08H121.815ZM116.74 111.84V134.971H121.815C123.507 134.971 124.808 134.516 125.719 133.605C126.63 132.694 127.086 131.003 127.086 128.53V118.282C127.086 115.809 126.63 114.118 125.719 113.207C124.808 112.295 123.507 111.84 121.815 111.84H116.74ZM153.53 130.872H168.268V140.632H153.53V160.64H172.074V170.4H142.794V102.08H172.074V111.84H153.53V130.872ZM201.175 170.4C201.046 169.945 200.915 169.522 200.785 169.131C200.655 168.741 200.525 168.253 200.394 167.667C200.33 167.082 200.265 166.334 200.199 165.423C200.199 164.511 200.199 163.373 200.199 162.007V151.271C200.199 148.083 199.646 145.838 198.54 144.536C197.434 143.235 195.645 142.584 193.172 142.584H189.463V170.4H178.727V102.08H194.929C200.525 102.08 204.559 103.382 207.031 105.984C209.569 108.587 210.838 112.523 210.838 117.794V123.162C210.838 130.189 208.495 134.809 203.81 137.021C206.543 138.127 208.398 139.949 209.374 142.487C210.415 144.959 210.935 147.985 210.935 151.563V162.104C210.935 163.796 211.001 165.292 211.13 166.594C211.261 167.83 211.586 169.099 212.106 170.4H201.175ZM189.463 111.84V132.824H193.66C195.678 132.824 197.239 132.303 198.345 131.263C199.516 130.222 200.102 128.335 200.102 125.602V118.867C200.102 116.395 199.646 114.606 198.735 113.499C197.89 112.393 196.523 111.84 194.636 111.84H189.463Z" fill="white"/>
<path d="M147.2 176.8H92.8C89.2654 176.8 86.4 179.665 86.4 183.2V214.4C86.4 217.935 89.2654 220.8 92.8 220.8H147.2C150.735 220.8 153.6 217.935 153.6 214.4V183.2C153.6 179.665 150.735 176.8 147.2 176.8Z" fill="#75A8FF"/>
<path d="M106.781 188.64H109.949V196.848H113.347V188.64H116.515V208.8H113.347V199.728H109.949V208.8H106.781V188.64ZM118.874 188.64H122.042V208.8H118.874V188.64ZM126.892 191.52H123.58V188.64H133.372V191.52H130.06V208.8H126.892V191.52Z" fill="white"/>
<path d="M120 239.6C186.053 239.6 239.6 186.053 239.6 120C239.6 53.9467 186.053 0.399902 120 0.399902C53.9468 0.399902 0.400024 53.9467 0.400024 120C0.400024 186.053 53.9468 239.6 120 239.6Z" stroke="#75A8FF"/>
<path d="M120 231.6C181.635 231.6 231.6 181.635 231.6 120C231.6 58.3649 181.635 8.3999 120 8.3999C58.365 8.3999 8.40002 58.3649 8.40002 120C8.40002 181.635 58.365 231.6 120 231.6Z" stroke="#75A8FF"/>
</g>
</g>
<defs>
<clipPath id="clip0_3137_1194">
<rect width="240" height="240" fill="white"/>
</clipPath>
</defs>
</svg>
